# xmcd
#
# Track frame offsets: 
#        150
#        20584
#        35823
#        49637
#        71238
#        88841
#        105175
#        118410
#        137698
#        151811
#        174535
#        189554
#        207090
#        221737
#        239162
#        255045
#        271989
#        291352
#        314745
#        333717
#
# Disc length: 4708 seconds
#
# Revision: 0
# Processed by: cddbd v1.5.2PL0 Copyright (c) Steve Scherf et al.
# Submitted via: ExactAudioCopy v1.1
#
DISCID=38126214
DTITLE=Various Artist - (40 Keer Blijven) Pompen III - CD 1
DYEAR=2018
DGENRE=House
TTITLE0=Marshall Masters Feat. The Ultimate MC - I Like It Loud 2018
TTITLE1=Jebroer and Dr Phunk - Leven Na De Dood
TTITLE2=Outsiders, Billy The Kit and The Darkraver Feat. De Kraaien - He
TTITLE2=t Zwarte Schaap
TTITLE3=Paul Elstak - Luv U More (Da Tweekaz Remix)
TTITLE4=Scooter - Move Your Ass!
TTITLE5=Mark 'Oh - Tears Don't Lie
TTITLE6=Dune - Rainbow To The Stars
TTITLE7=Diss Reaction - Jiieehaaaa
TTITLE8=Party Animals Vs. The Opposites - Dom, Lomp and Mellow (Django M
TTITLE8=ashup)
TTITLE9=Cherrymoon Trax - The House Of House
TTITLE10=D-Devils - The 6th Gate 2007 (Peejay Vs. Starfighter Single E
TTITLE10=dit)
TTITLE11=Dimitri Vegas, Like Mike and Steve Aoki Vs. Ummet Ozcan - Melod
TTITLE11=y (Coone Remix)
TTITLE12=Coone and Wildstylez - Here I Come
TTITLE13=Zatox and Luca Antolini - Open Your Mind
TTITLE14=Brennan Heart Feat. Trevor Guthrie - Won't Hold Me Down (Grav
TTITLE14=ity)
TTITLE15=Mark With A K - Music Is My Alibi (Da Tweekaz Remix)
TTITLE16=Headhunterz - Scrap Attack
TTITLE17=Da Tweekaz Feat. Oscar - Break The Spell
TTITLE18=Anime Feat. Dave Revan - The Third Invasion (Official Masters
TTITLE18=Of Hardcore Austria 2018 Anthem)
TTITLE19=D-Fence and Deadly Guns - Wall Of Bass
EXTD=
EXTT0=
EXTT1=
EXTT2=
EXTT3=
EXTT4=
EXTT5=
EXTT6=
EXTT7=
EXTT8=
EXTT9=
EXTT10=
EXTT11=
EXTT12=
EXTT13=
EXTT14=
EXTT15=
EXTT16=
EXTT17=
EXTT18=
EXTT19=
PLAYORDER=
